 <svg
          width="150"
          height="47"
          viewBox="0 0 166 47"
          fill="none"
          xmlns="http://www.w3.org/2000/svg"
        >
          <path
            d="M116.904 22.9947C115.894 22.9947 114.975 22.8721 114.148 22.6271C113.321 22.3821 112.555 21.9227 111.82 21.2795C111.636 21.1264 111.483 20.9426 111.391 20.7282C111.3 20.5139 111.238 20.3301 111.238 20.1157C111.238 19.7788 111.361 19.4725 111.606 19.2275C111.851 18.9825 112.157 18.86 112.525 18.86C112.8 18.86 113.045 18.9519 113.26 19.1356C113.811 19.595 114.362 19.9319 114.914 20.1769C115.465 20.422 116.139 20.5138 116.935 20.5138C117.486 20.5138 117.976 20.422 118.436 20.2688C118.895 20.1157 119.263 19.8707 119.538 19.595C119.814 19.3194 119.967 18.9825 119.967 18.615C119.967 18.1862 119.845 17.8186 119.569 17.5124C119.293 17.2061 118.895 16.9611 118.374 16.7467C117.823 16.5323 117.149 16.3792 116.322 16.2567C115.526 16.1341 114.852 15.9504 114.24 15.7054C113.627 15.4603 113.137 15.1541 112.739 14.7865C112.341 14.419 112.035 13.9902 111.82 13.4696C111.606 12.9795 111.514 12.3976 111.514 11.7851C111.514 10.8356 111.759 10.0393 112.249 9.36551C112.739 8.69171 113.413 8.17104 114.24 7.83414C115.067 7.49724 115.986 7.31348 116.996 7.31348C117.946 7.31348 118.834 7.46662 119.63 7.74227C120.426 8.01791 121.1 8.38544 121.621 8.81422C122.05 9.15112 122.264 9.54927 122.264 9.97806C122.264 10.2843 122.142 10.5906 121.897 10.8662C121.652 11.1419 121.345 11.2644 121.008 11.2644C120.794 11.2644 120.58 11.2032 120.426 11.0806C120.181 10.8662 119.875 10.6825 119.477 10.4987C119.079 10.315 118.681 10.1618 118.221 10.0393C117.793 9.91681 117.364 9.85555 116.996 9.85555C116.384 9.85555 115.832 9.94743 115.404 10.1006C114.975 10.2537 114.638 10.4681 114.424 10.7437C114.209 11.0194 114.087 11.3563 114.087 11.6932C114.087 12.122 114.209 12.4895 114.454 12.7651C114.699 13.0408 115.067 13.2858 115.557 13.4389C116.047 13.5921 116.629 13.7452 117.272 13.8983C118.16 14.0515 118.926 14.2353 119.569 14.4803C120.243 14.6947 120.794 14.9703 121.223 15.3072C121.652 15.6441 121.988 16.0729 122.203 16.5936C122.417 17.1142 122.54 17.7574 122.54 18.4924C122.54 19.4419 122.264 20.2688 121.743 20.9426C121.223 21.6164 120.518 22.1677 119.661 22.5046C118.803 22.8109 117.884 22.9947 116.904 22.9947Z"
            fill="#3DC7F4"
          />
          <path
            d="M139.109 15.1237C139.109 16.2262 138.925 17.2369 138.558 18.1864C138.19 19.1358 137.67 19.9628 137.026 20.6978C136.353 21.4329 135.587 21.9842 134.668 22.3823C133.749 22.7805 132.769 22.9949 131.667 22.9949C130.595 22.9949 129.584 22.7805 128.696 22.3823C127.777 21.9842 127.011 21.4023 126.338 20.6978C125.664 19.9628 125.174 19.1358 124.806 18.1864C124.439 17.2369 124.255 16.2262 124.255 15.1237C124.255 14.0211 124.439 13.0104 124.806 12.0609C125.174 11.1115 125.694 10.2845 126.338 9.54949C127.011 8.81443 127.777 8.26314 128.696 7.86499C129.615 7.46683 130.595 7.25244 131.667 7.25244C132.739 7.25244 133.749 7.46683 134.668 7.86499C135.587 8.26314 136.353 8.84506 137.026 9.54949C137.7 10.2845 138.19 11.1115 138.558 12.0609C138.956 13.0104 139.109 14.0211 139.109 15.1237ZM136.291 15.1237C136.291 14.1436 136.108 13.2554 135.71 12.4591C135.311 11.6628 134.791 11.0196 134.086 10.5602C133.412 10.1008 132.616 9.85576 131.697 9.85576C130.779 9.85576 130.013 10.1008 129.308 10.5602C128.635 11.0196 128.083 11.6628 127.716 12.4285C127.318 13.2248 127.134 14.113 127.134 15.093C127.134 16.0731 127.318 16.9613 127.716 17.7576C128.114 18.5539 128.635 19.1971 129.308 19.6565C129.982 20.1159 130.779 20.3609 131.697 20.3609C132.616 20.3609 133.382 20.1159 134.086 19.6565C134.76 19.1971 135.311 18.5539 135.71 17.7576C136.077 16.9613 136.291 16.1037 136.291 15.1237Z"
            fill="#3DC7F4"
          />
          <path
            d="M143.029 22.7806C142.631 22.7806 142.294 22.6581 142.049 22.4131C141.804 22.168 141.682 21.8311 141.682 21.4636V8.81454C141.682 8.44701 141.804 8.11011 142.049 7.86509C142.294 7.62007 142.631 7.49756 142.999 7.49756H150.104C150.472 7.49756 150.809 7.62007 151.054 7.86509C151.299 8.11011 151.421 8.41638 151.421 8.78391C151.421 9.09018 151.299 9.39645 151.054 9.64147C150.809 9.88649 150.472 10.009 150.104 10.009H144.193L144.377 9.73336V14.1131L144.224 13.8374H149.094C149.461 13.8374 149.798 13.9599 150.043 14.2049C150.288 14.45 150.411 14.7562 150.411 15.1238C150.411 15.43 150.288 15.7363 150.043 15.9813C149.798 16.2263 149.461 16.3488 149.094 16.3488H144.163L144.346 16.1651V21.4636C144.346 21.8311 144.224 22.168 143.948 22.4131C143.703 22.6275 143.397 22.7806 143.029 22.7806Z"
            fill="#3DC7F4"
          />
          <path
            d="M154.27 9.97824C153.902 9.97824 153.565 9.85573 153.32 9.64134C153.075 9.39632 152.953 9.09005 152.953 8.72252C152.953 8.35499 153.075 8.04872 153.32 7.8037C153.565 7.58931 153.902 7.4668 154.27 7.4668H163.978C164.346 7.4668 164.683 7.58931 164.928 7.8037C165.173 8.04872 165.295 8.35499 165.295 8.72252C165.295 9.09005 165.173 9.39632 164.928 9.64134C164.683 9.85573 164.346 9.97824 163.978 9.97824H154.27ZM159.109 22.7805C158.711 22.7805 158.374 22.6579 158.098 22.4129C157.822 22.1679 157.7 21.831 157.7 21.4635V8.78378H160.548V21.4635C160.548 21.831 160.426 22.1679 160.15 22.4129C159.874 22.6273 159.538 22.7805 159.109 22.7805Z"
            fill="#3DC7F4"
          />
          <path
            d="M3.55277 46.0265C2.90959 46.0265 2.32768 45.9346 1.83764 45.7815C1.31697 45.6284 0.826937 45.3527 0.367527 44.9546C0.245018 44.8627 0.153136 44.7402 0.0918817 44.6177C0.0306271 44.4952 0 44.3726 0 44.2195C0 44.0051 0.0612543 43.8214 0.214391 43.6682C0.367527 43.5151 0.551292 43.4232 0.79631 43.4232C0.980074 43.4232 1.13321 43.4845 1.25572 43.5763C1.59262 43.852 1.96015 44.0664 2.29705 44.2195C2.63395 44.3726 3.06273 44.4339 3.55277 44.4339C3.88967 44.4339 4.19594 44.3726 4.47159 44.2808C4.74723 44.1889 4.99225 44.0357 5.14539 43.852C5.32915 43.6682 5.39041 43.4845 5.39041 43.2394C5.39041 42.9638 5.29852 42.7188 5.14539 42.535C4.99225 42.3512 4.71661 42.1675 4.37971 42.045C4.0428 41.9225 3.61402 41.8 3.09336 41.7387C2.60332 41.6774 2.17454 41.5549 1.80701 41.4018C1.43948 41.2487 1.13321 41.0649 0.857564 40.8199C0.612546 40.5749 0.428782 40.2992 0.275646 39.9929C0.153136 39.6867 0.0918817 39.3191 0.0918817 38.921C0.0918817 38.3391 0.245018 37.8184 0.551291 37.3896C0.857564 36.9608 1.25572 36.6546 1.77638 36.4402C2.29705 36.2258 2.87897 36.1033 3.49151 36.1033C4.07343 36.1033 4.62472 36.1952 5.14539 36.3789C5.66605 36.5627 6.06421 36.7771 6.37048 37.0527C6.64613 37.2671 6.76863 37.5121 6.76863 37.7878C6.76863 38.0022 6.67675 38.1859 6.52362 38.3391C6.37048 38.4922 6.18672 38.5841 5.97232 38.5841C5.84981 38.5841 5.72731 38.5535 5.6048 38.4616C5.45166 38.3391 5.2679 38.2166 5.02288 38.094C4.77786 37.9715 4.50221 37.8797 4.2572 37.8184C3.98155 37.7265 3.73653 37.6959 3.49151 37.6959C3.09336 37.6959 2.75646 37.7571 2.51144 37.849C2.23579 37.9409 2.05203 38.094 1.89889 38.2472C1.77638 38.4309 1.6845 38.6147 1.6845 38.8597C1.6845 39.1354 1.77638 39.3498 1.92952 39.5335C2.08266 39.7173 2.32768 39.8398 2.63395 39.9623C2.94022 40.0542 3.30775 40.1461 3.7059 40.238C4.2572 40.3298 4.74723 40.4524 5.14539 40.6055C5.57417 40.728 5.91107 40.9118 6.18672 41.1262C6.46236 41.3405 6.67675 41.6162 6.79926 41.9225C6.92177 42.2594 7.01365 42.6269 7.01365 43.1169C7.01365 43.6989 6.86052 44.2195 6.52362 44.6483C6.18672 45.0771 5.75793 45.414 5.23727 45.6284C4.74723 45.904 4.19594 46.0265 3.55277 46.0265Z"
            fill="#151515"
          />
          <path
            d="M16.7837 38.4309C17.5188 38.4309 18.0394 38.6147 18.407 38.9516C18.7439 39.2885 18.9889 39.7479 19.0808 40.2992L18.8357 40.1767L18.9583 39.9623C19.0808 39.7479 19.2339 39.5335 19.4789 39.2885C19.6933 39.0435 19.969 38.8291 20.3059 38.6759C20.6428 38.4922 20.9797 38.4309 21.4084 38.4309C22.0516 38.4309 22.5723 38.584 22.9092 38.8597C23.2461 39.1353 23.4911 39.5335 23.6136 39.9929C23.7361 40.4523 23.7974 40.973 23.7974 41.5549V45.0464C23.7974 45.2914 23.7055 45.4752 23.5523 45.6283C23.3992 45.7815 23.2154 45.8733 22.9704 45.8733C22.7254 45.8733 22.5416 45.7815 22.3885 45.6283C22.2354 45.4752 22.1435 45.2608 22.1435 45.0464V41.5549C22.1435 41.2486 22.1129 40.973 22.021 40.728C21.9597 40.4829 21.8066 40.2992 21.6228 40.146C21.4391 39.9929 21.1634 39.9316 20.7959 39.9316C20.459 39.9316 20.1527 39.9929 19.9077 40.146C19.6627 40.2992 19.4789 40.4829 19.3564 40.728C19.2339 40.973 19.1726 41.2486 19.1726 41.5549V45.0464C19.1726 45.2914 19.0808 45.4752 18.9276 45.6283C18.7745 45.7815 18.5907 45.8733 18.3457 45.8733C18.1007 45.8733 17.9169 45.7815 17.7638 45.6283C17.6106 45.4752 17.5188 45.2608 17.5188 45.0464V41.5549C17.5188 41.2486 17.4881 40.973 17.3963 40.728C17.335 40.4829 17.1819 40.2992 16.9981 40.146C16.8143 39.9929 16.5387 39.9316 16.1712 39.9316C15.8343 39.9316 15.528 39.9929 15.283 40.146C15.038 40.2992 14.8542 40.4829 14.7317 40.728C14.6092 40.973 14.5479 41.2486 14.5479 41.5549V45.0464C14.5479 45.2914 14.456 45.4752 14.3029 45.6283C14.1498 45.7815 13.966 45.8733 13.721 45.8733C13.476 45.8733 13.2922 45.7815 13.1391 45.6283C12.9859 45.4752 12.894 45.2608 12.894 45.0464V39.411C12.894 39.166 12.9859 38.9822 13.1391 38.8291C13.2922 38.6759 13.476 38.584 13.721 38.584C13.966 38.584 14.1498 38.6759 14.3029 38.8291C14.456 38.9822 14.5479 39.1966 14.5479 39.411V39.9929L14.3335 39.9623C14.4254 39.8091 14.5173 39.656 14.6704 39.4722C14.8236 39.2885 15.0073 39.1353 15.1911 38.9822C15.4055 38.8291 15.6199 38.7066 15.8955 38.6147C16.1712 38.5228 16.4774 38.4309 16.7837 38.4309Z"
            fill="#151515"
          />
          <path
            d="M35.9563 38.431C36.2013 38.431 36.3851 38.5229 36.5382 38.676C36.6914 38.8292 36.7832 39.0436 36.7832 39.2886V45.0465C36.7832 45.2915 36.6914 45.4753 36.5382 45.6284C36.3851 45.7816 36.2013 45.8735 35.9563 45.8735C35.7113 45.8735 35.5275 45.7816 35.3744 45.6284C35.2213 45.4753 35.1294 45.2609 35.1294 45.0465V44.3727L35.4356 44.4952C35.4356 44.6177 35.3744 44.7709 35.2519 44.924C35.1294 45.1078 34.9456 45.2609 34.7312 45.4141C34.5168 45.5672 34.2412 45.7203 33.9655 45.8428C33.6593 45.9653 33.353 46.0266 33.0161 46.0266C32.3729 46.0266 31.8216 45.8735 31.301 45.5366C30.7803 45.1997 30.3821 44.7709 30.0759 44.189C29.7696 43.607 29.6165 42.9639 29.6165 42.2288C29.6165 41.4937 29.7696 40.8199 30.0759 40.238C30.3821 39.6561 30.7803 39.2273 31.2703 38.8904C31.7604 38.5535 32.3423 38.4004 32.9242 38.4004C33.3224 38.4004 33.6899 38.4616 33.9962 38.5842C34.3331 38.7067 34.6087 38.8598 34.8537 39.0436C35.0987 39.2273 35.2825 39.4111 35.405 39.5949C35.5275 39.7786 35.5888 39.9318 35.5888 40.0543L35.0987 40.238V39.2273C35.0987 38.9823 35.1906 38.7986 35.3438 38.6454C35.5275 38.5229 35.7113 38.431 35.9563 38.431ZM33.1998 44.5259C33.598 44.5259 33.9655 44.434 34.2412 44.2196C34.5474 44.0052 34.7618 43.7602 34.9456 43.3926C35.1294 43.0557 35.1906 42.6576 35.1906 42.2288C35.1906 41.8 35.0987 41.4019 34.9456 41.065C34.7618 40.7281 34.5474 40.4524 34.2412 40.238C33.9349 40.0236 33.598 39.9318 33.1998 39.9318C32.8017 39.9318 32.4648 40.0236 32.1585 40.238C31.8522 40.4524 31.6379 40.6974 31.4541 41.065C31.2703 41.4019 31.2091 41.8 31.2091 42.2288C31.2091 42.6576 31.301 43.0557 31.4541 43.3926C31.6379 43.7295 31.8522 44.0052 32.1585 44.2196C32.4342 44.4033 32.8017 44.5259 33.1998 44.5259Z"
            fill="#151515"
          />
          <path
            d="M43.7972 45.8733C43.5521 45.8733 43.3684 45.7815 43.2152 45.6283C43.0621 45.4752 42.9702 45.2608 42.9702 45.0464V39.411C42.9702 39.166 43.0621 38.9822 43.2152 38.8291C43.3684 38.6759 43.5521 38.584 43.7972 38.584C44.0422 38.584 44.2259 38.6759 44.3791 38.8291C44.5322 38.9822 44.6241 39.1966 44.6241 39.411V40.6973L44.5322 39.7785C44.6241 39.5641 44.7772 39.3804 44.9304 39.1966C45.0835 39.0128 45.2673 38.8903 45.4817 38.7678C45.696 38.6453 45.9104 38.5841 46.1248 38.5228C46.3392 38.4615 46.5842 38.4309 46.7986 38.4309C47.0743 38.4309 47.2887 38.5228 47.5031 38.6759C47.6868 38.8291 47.7787 39.0128 47.7787 39.2272C47.7787 39.5335 47.6868 39.7479 47.5337 39.8704C47.3805 39.9929 47.1968 40.0542 47.013 40.0542C46.8293 40.0542 46.6761 40.0235 46.5536 39.9623C46.4005 39.901 46.2473 39.8704 46.0636 39.8704C45.9104 39.8704 45.7267 39.901 45.5735 39.9929C45.3898 40.0848 45.2366 40.1767 45.1141 40.3604C44.961 40.5136 44.8691 40.728 44.7772 40.973C44.6853 41.218 44.6547 41.4936 44.6547 41.8305V45.0464C44.6547 45.2914 44.5628 45.4752 44.4097 45.6283C44.2259 45.8121 44.0115 45.8733 43.7972 45.8733Z"
            fill="#151515"
          />
          <path
            d="M53.4141 38.7066H56.6606C56.875 38.7066 57.0588 38.7678 57.2119 38.921C57.365 39.0741 57.4263 39.2579 57.4263 39.4723C57.4263 39.6867 57.365 39.8704 57.2119 39.9929C57.0588 40.1461 56.875 40.2073 56.6606 40.2073H53.4141C53.1997 40.2073 53.016 40.1461 52.8628 39.9929C52.7097 39.8398 52.6484 39.656 52.6484 39.4416C52.6484 39.2272 52.7097 39.0435 52.8628 38.921C52.9853 38.7678 53.1691 38.7066 53.4141 38.7066ZM54.8536 36.9915C55.0986 36.9915 55.2824 37.0833 55.4355 37.2365C55.5887 37.3896 55.6499 37.604 55.6499 37.8184V43.9132C55.6499 44.0357 55.6805 44.1582 55.7112 44.2195C55.7724 44.3114 55.8337 44.3726 55.9256 44.4033C56.0174 44.4339 56.1093 44.4645 56.2012 44.4645C56.3237 44.4645 56.4156 44.4339 56.5075 44.4033C56.5994 44.3726 56.6912 44.342 56.8138 44.342C56.9363 44.342 57.0588 44.4033 57.1507 44.5258C57.2425 44.6483 57.3038 44.8014 57.3038 45.0158C57.3038 45.2608 57.1507 45.4752 56.875 45.659C56.5994 45.8121 56.2931 45.904 55.9868 45.904C55.803 45.904 55.5887 45.8734 55.3436 45.8427C55.0986 45.8121 54.8842 45.7202 54.7005 45.5977C54.5167 45.4752 54.3329 45.2914 54.1798 45.0158C54.0573 44.7708 53.9654 44.4033 53.9654 43.9745V37.8184C53.9654 37.5734 54.0573 37.3896 54.2104 37.2365C54.4248 37.0833 54.6392 36.9915 54.8536 36.9915Z"
            fill="#151515"
          />
          <path
            d="M74.7918 46.0265C74.1486 46.0265 73.5667 45.9346 73.0767 45.7815C72.556 45.6284 72.0659 45.3527 71.6065 44.9546C71.484 44.8627 71.3921 44.7402 71.3309 44.6177C71.2696 44.4952 71.239 44.3726 71.239 44.2195C71.239 44.0051 71.3003 43.8214 71.4534 43.6682C71.6065 43.5151 71.7903 43.4232 72.0353 43.4232C72.2191 43.4232 72.3722 43.4845 72.4947 43.5763C72.8316 43.852 73.1992 44.0664 73.5361 44.2195C73.873 44.3726 74.3017 44.4339 74.7918 44.4339C75.1287 44.4339 75.4349 44.3726 75.7106 44.2808C75.9862 44.1889 76.2313 44.0357 76.3844 43.852C76.5682 43.6682 76.6294 43.4845 76.6294 43.2394C76.6294 42.9638 76.5375 42.7188 76.3844 42.535C76.2313 42.3512 75.9556 42.1675 75.6187 42.045C75.2818 41.9225 74.853 41.8 74.3324 41.7387C73.8423 41.6774 73.4136 41.5549 73.046 41.4018C72.6785 41.2487 72.3722 41.0649 72.0966 40.8199C71.8516 40.5749 71.6678 40.2992 71.5147 39.9929C71.3921 39.6867 71.3309 39.3191 71.3309 38.921C71.3309 38.3391 71.484 37.8184 71.7903 37.3896C72.0966 36.9608 72.4947 36.6546 73.0154 36.4402C73.5361 36.2258 74.118 36.1033 74.7305 36.1033C75.3124 36.1033 75.8637 36.1952 76.3844 36.3789C76.9051 36.5627 77.3032 36.7771 77.6095 37.0527C77.8851 37.2671 78.0076 37.5121 78.0076 37.7878C78.0076 38.0022 77.9158 38.1859 77.7626 38.3391C77.6095 38.4922 77.4257 38.5841 77.2113 38.5841C77.0888 38.5841 76.9663 38.5535 76.8438 38.4616C76.6907 38.3391 76.5069 38.2166 76.2619 38.094C76.0169 37.9715 75.7412 37.8797 75.4962 37.8184C75.2206 37.7265 74.9755 37.6959 74.7305 37.6959C74.3324 37.6959 73.9955 37.7571 73.7504 37.849C73.4748 37.9409 73.291 38.094 73.1379 38.2472C73.0154 38.4309 72.9235 38.6147 72.9235 38.8597C72.9235 39.1354 73.0154 39.3498 73.1685 39.5335C73.3217 39.7173 73.5667 39.8398 73.873 39.9623C74.1792 40.0542 74.5468 40.1461 74.9449 40.238C75.4962 40.3298 75.9862 40.4524 76.3844 40.6055C76.8132 40.728 77.1501 40.9118 77.4257 41.1262C77.7014 41.3405 77.9158 41.6162 78.0383 41.9225C78.1608 42.2594 78.2527 42.6269 78.2527 43.1169C78.2527 43.6989 78.0995 44.2195 77.7626 44.6483C77.4257 45.0771 76.9969 45.414 76.4763 45.6284C75.9862 45.904 75.4043 46.0265 74.7918 46.0265Z"
            fill="#151515"
          />
          <path
            d="M91.2695 42.2288C91.2695 42.9639 91.1163 43.6377 90.7794 44.2196C90.4425 44.8015 90.0138 45.2303 89.4318 45.5672C88.8805 45.8735 88.2374 46.0572 87.5636 46.0572C86.8591 46.0572 86.2466 45.9041 85.6953 45.5672C85.144 45.2609 84.6846 44.8015 84.3477 44.2196C84.0108 43.6377 83.8577 42.9945 83.8577 42.2288C83.8577 41.4937 84.0108 40.8199 84.3477 40.238C84.6846 39.6561 85.1134 39.2273 85.6953 38.8904C86.2466 38.5535 86.8898 38.4004 87.5636 38.4004C88.268 38.4004 88.8805 38.5535 89.4318 38.8904C89.9831 39.2273 90.4425 39.6561 90.7794 40.238C91.0857 40.8199 91.2695 41.4937 91.2695 42.2288ZM89.6156 42.2288C89.6156 41.7694 89.5237 41.3712 89.34 41.0037C89.1562 40.6668 88.9112 40.3912 88.5743 40.2074C88.268 40.0236 87.9005 39.9318 87.5329 39.9318C87.1348 39.9318 86.7979 40.0236 86.4916 40.2074C86.1853 40.3912 85.9403 40.6668 85.7259 41.0037C85.5422 41.3406 85.4503 41.7388 85.4503 42.2288C85.4503 42.6882 85.5422 43.0864 85.7259 43.4233C85.9097 43.7602 86.1547 44.0358 86.4916 44.2196C86.7979 44.4033 87.1654 44.4952 87.5329 44.4952C87.9005 44.4952 88.268 44.4033 88.5743 44.2196C88.8805 44.0358 89.1256 43.7602 89.34 43.4233C89.5237 43.0864 89.6156 42.6882 89.6156 42.2288Z"
            fill="#151515"
          />
          <path
            d="M98.8956 45.0464C98.8956 45.2914 98.8037 45.4752 98.6506 45.6283C98.4974 45.7815 98.283 45.8734 98.0686 45.8734C97.8542 45.8734 97.6399 45.7815 97.4867 45.6283C97.3336 45.4752 97.2417 45.2608 97.2417 45.0464V36.5933C97.2417 36.3483 97.3336 36.1645 97.4867 36.0114C97.6399 35.8582 97.8542 35.7664 98.0686 35.7664C98.3136 35.7664 98.4974 35.8582 98.6506 36.0114C98.8037 36.1645 98.8649 36.3789 98.8649 36.5933V45.0464H98.8956Z"
            fill="#151515"
          />
          <path
            d="M110.656 38.5535C110.901 38.5535 111.085 38.6454 111.238 38.7985C111.391 38.9516 111.483 39.166 111.483 39.3804V42.8413C111.483 43.8214 111.208 44.587 110.687 45.1383C110.136 45.6896 109.37 45.9959 108.359 45.9959C107.349 45.9959 106.583 45.7203 106.032 45.1383C105.511 44.587 105.235 43.8214 105.235 42.8413V39.3804C105.235 39.1354 105.327 38.9516 105.48 38.7985C105.634 38.6454 105.817 38.5535 106.062 38.5535C106.307 38.5535 106.491 38.6454 106.644 38.7985C106.797 38.9516 106.889 39.166 106.889 39.3804V42.8413C106.889 43.3926 107.012 43.8214 107.257 44.0664C107.502 44.342 107.869 44.4645 108.359 44.4645C108.849 44.4645 109.248 44.342 109.493 44.0664C109.738 43.7907 109.86 43.3926 109.86 42.8413V39.3804C109.86 39.1354 109.952 38.9516 110.105 38.7985C110.228 38.6454 110.411 38.5535 110.656 38.5535Z"
            fill="#151515"
          />
          <path
            d="M117.762 38.7066H121.009C121.223 38.7066 121.407 38.7678 121.56 38.921C121.713 39.0741 121.774 39.2579 121.774 39.4723C121.774 39.6867 121.713 39.8704 121.56 39.9929C121.407 40.1461 121.223 40.2073 121.009 40.2073H117.762C117.548 40.2073 117.364 40.1461 117.211 39.9929C117.058 39.8398 116.996 39.656 116.996 39.4416C116.996 39.2272 117.058 39.0435 117.211 38.921C117.364 38.7678 117.548 38.7066 117.762 38.7066ZM119.201 36.9915C119.447 36.9915 119.63 37.0833 119.783 37.2365C119.937 37.3896 119.998 37.604 119.998 37.8184V43.9132C119.998 44.0357 120.028 44.1582 120.059 44.2195C120.12 44.3114 120.182 44.3726 120.273 44.4033C120.365 44.4339 120.457 44.4645 120.549 44.4645C120.672 44.4645 120.763 44.4339 120.855 44.4033C120.947 44.3726 121.039 44.342 121.162 44.342C121.284 44.342 121.407 44.4033 121.499 44.5258C121.59 44.6483 121.652 44.8014 121.652 45.0158C121.652 45.2608 121.499 45.4752 121.223 45.659C120.947 45.8121 120.641 45.904 120.335 45.904C120.151 45.904 119.937 45.8734 119.692 45.8427C119.447 45.8121 119.232 45.7202 119.048 45.5977C118.865 45.4752 118.681 45.2914 118.528 45.0158C118.405 44.7708 118.313 44.4033 118.313 43.9745V37.8184C118.313 37.5734 118.405 37.3896 118.558 37.2365C118.773 37.0833 118.987 36.9915 119.201 36.9915Z"
            fill="#151515"
          />
          <path
            d="M128.39 37.6652C128.083 37.6652 127.869 37.604 127.747 37.5121C127.624 37.4202 127.563 37.2365 127.563 36.9914V36.7464C127.563 36.4708 127.624 36.287 127.777 36.1951C127.93 36.1032 128.145 36.042 128.42 36.042C128.727 36.042 128.972 36.1032 129.094 36.1951C129.217 36.287 129.278 36.4708 129.278 36.7158V36.9608C129.278 37.2365 129.217 37.4202 129.063 37.5121C128.941 37.6346 128.696 37.6652 128.39 37.6652ZM129.217 45.0464C129.217 45.2914 129.125 45.4752 128.972 45.6283C128.818 45.7815 128.635 45.8734 128.39 45.8734C128.145 45.8734 127.961 45.7815 127.808 45.6283C127.655 45.4752 127.563 45.2608 127.563 45.0464V39.411C127.563 39.166 127.655 38.9822 127.808 38.8291C127.961 38.6759 128.145 38.5841 128.39 38.5841C128.635 38.5841 128.818 38.6759 128.972 38.8291C129.125 38.9822 129.217 39.1966 129.217 39.411V45.0464Z"
            fill="#151515"
          />
          <path
            d="M142.417 42.2288C142.417 42.9639 142.264 43.6377 141.927 44.2196C141.59 44.8015 141.161 45.2303 140.579 45.5672C140.028 45.8735 139.385 46.0572 138.711 46.0572C138.037 46.0572 137.394 45.9041 136.843 45.5672C136.291 45.2609 135.832 44.8015 135.495 44.2196C135.158 43.6377 135.005 42.9945 135.005 42.2288C135.005 41.4937 135.158 40.8199 135.495 40.238C135.832 39.6561 136.261 39.2273 136.843 38.8904C137.394 38.5535 138.037 38.4004 138.711 38.4004C139.385 38.4004 140.028 38.5535 140.579 38.8904C141.131 39.2273 141.59 39.6561 141.927 40.238C142.264 40.8199 142.417 41.4937 142.417 42.2288ZM140.794 42.2288C140.794 41.7694 140.702 41.3712 140.518 41.0037C140.334 40.6668 140.089 40.3912 139.752 40.2074C139.446 40.0236 139.079 39.9318 138.711 39.9318C138.344 39.9318 137.976 40.0236 137.67 40.2074C137.363 40.3912 137.118 40.6668 136.904 41.0037C136.69 41.3406 136.628 41.7388 136.628 42.2288C136.628 42.6882 136.72 43.0864 136.904 43.4233C137.088 43.7602 137.333 44.0358 137.67 44.2196C137.976 44.4033 138.344 44.4952 138.711 44.4952C139.079 44.4952 139.446 44.4033 139.752 44.2196C140.059 44.0358 140.304 43.7602 140.518 43.4233C140.702 43.0864 140.794 42.6882 140.794 42.2288Z"
            fill="#151515"
          />
          <path
            d="M152.187 38.4309C152.861 38.4309 153.381 38.584 153.718 38.8597C154.055 39.1353 154.3 39.5335 154.453 39.9929C154.576 40.4523 154.637 40.973 154.637 41.5549V45.0464C154.637 45.2914 154.545 45.4752 154.392 45.6283C154.239 45.7815 154.055 45.8733 153.81 45.8733C153.565 45.8733 153.381 45.7815 153.228 45.6283C153.075 45.4752 152.983 45.2608 152.983 45.0464V41.5549C152.983 41.2486 152.953 40.973 152.861 40.728C152.769 40.4829 152.646 40.2992 152.432 40.146C152.218 39.9929 151.942 39.9316 151.574 39.9316C151.207 39.9316 150.901 39.9929 150.656 40.146C150.411 40.2992 150.227 40.4829 150.074 40.728C149.951 40.973 149.89 41.2486 149.89 41.5549V45.0464C149.89 45.2914 149.798 45.4752 149.645 45.6283C149.492 45.7815 149.308 45.8733 149.063 45.8733C148.818 45.8733 148.634 45.7815 148.481 45.6283C148.328 45.4752 148.236 45.2608 148.236 45.0464V39.411C148.236 39.166 148.328 38.9822 148.481 38.8291C148.634 38.6759 148.818 38.584 149.063 38.584C149.308 38.584 149.492 38.6759 149.645 38.8291C149.798 38.9822 149.89 39.1966 149.89 39.411V39.9929L149.676 39.9623C149.767 39.8091 149.89 39.656 150.043 39.4722C150.196 39.2885 150.38 39.1353 150.594 38.9822C150.809 38.8291 151.054 38.7066 151.299 38.6147C151.605 38.4922 151.881 38.4309 152.187 38.4309Z"
            fill="#151515"
          />
          <path
            d="M160.426 44.7401C160.334 44.6176 160.303 44.4338 160.303 44.2501C160.303 44.0357 160.426 43.8825 160.671 43.7294C160.824 43.6375 160.977 43.6069 161.13 43.6069C161.284 43.6069 161.467 43.6988 161.62 43.8519C161.896 44.1276 162.172 44.3113 162.447 44.4645C162.754 44.6176 163.091 44.6788 163.55 44.6788C163.672 44.6788 163.826 44.6482 164.009 44.6176C164.163 44.587 164.316 44.5257 164.438 44.4032C164.561 44.2807 164.622 44.1276 164.622 43.8825C164.622 43.6682 164.561 43.515 164.408 43.3925C164.285 43.27 164.101 43.1781 163.856 43.0862C163.642 42.9944 163.397 42.9331 163.121 42.8412C162.846 42.7493 162.539 42.6574 162.264 42.5656C161.957 42.4737 161.682 42.3205 161.437 42.1674C161.192 42.0143 160.977 41.7999 160.824 41.5242C160.671 41.2486 160.579 40.9423 160.579 40.5135C160.579 40.0541 160.702 39.656 160.947 39.3497C161.192 39.0434 161.529 38.7984 161.927 38.6146C162.325 38.4309 162.754 38.3696 163.213 38.3696C163.489 38.3696 163.795 38.4003 164.101 38.4615C164.408 38.5228 164.714 38.6453 164.989 38.7984C165.265 38.9515 165.51 39.1353 165.694 39.3803C165.786 39.5028 165.847 39.6866 165.878 39.8704C165.908 40.0541 165.816 40.2379 165.633 40.391C165.51 40.5135 165.326 40.5442 165.143 40.5442C164.959 40.5442 164.806 40.4829 164.683 40.3604C164.53 40.146 164.316 39.9929 164.071 39.8704C163.826 39.7479 163.519 39.6866 163.182 39.6866C163.06 39.6866 162.907 39.7172 162.723 39.7479C162.57 39.7785 162.417 39.8397 162.294 39.9622C162.172 40.0541 162.11 40.2379 162.11 40.4523C162.11 40.6667 162.172 40.8198 162.325 40.9423C162.447 41.0648 162.631 41.1567 162.876 41.2486C163.121 41.3405 163.366 41.4017 163.611 41.463C163.887 41.5242 164.163 41.6161 164.438 41.708C164.714 41.7999 164.989 41.953 165.204 42.1062C165.449 42.2593 165.633 42.4737 165.786 42.7493C165.939 42.9943 166 43.3313 166 43.7294C166 44.1888 165.878 44.587 165.602 44.9239C165.326 45.2608 164.989 45.5058 164.591 45.6589C164.193 45.8427 163.764 45.9039 163.336 45.9039C162.784 45.9039 162.264 45.8121 161.712 45.6283C161.222 45.567 160.794 45.2301 160.426 44.7401Z"
            fill="#151515"
          />
          <path
            d="M6.58481 3.3628C2.60326 5.65985 0.153076 9.94767 0.153076 14.5418V30.8355H4.53278V15.8894C4.53278 7.89564 13.4453 1.95395 21.8372 7.49749C24.2261 9.05948 25.635 11.7547 25.635 14.603V30.8661H30.0147V15.92C30.0453 4.9248 18.1619 -3.34458 6.58481 3.3628Z"
            fill="#5F539F"
          />
          <path
            d="M61.9896 15.3073V17.2062C61.9896 20.0546 60.5807 22.7191 58.1918 24.2811C49.7999 29.8247 40.8567 23.883 40.8567 15.8892C40.8567 10.07 45.6652 5.32282 51.4844 5.32282V0.943115C40.7955 0.943115 32.5261 12.2446 38.4066 23.5154C39.6317 25.9044 41.5918 27.8339 43.9807 29.0284C50.8412 32.428 57.6711 30.7435 61.959 26.4557V30.8354H66.3387V15.8892V15.3073H61.9896Z"
            fill="#5F539F"
          />
          <path
            d="M54.5166 0.943115V5.32282H61.9897V12.7959H66.3694V5.32282V0.943115H61.9897H54.5166Z"
            fill="#3DC7F4"
          />
          <path
            d="M93.6584 9.2124H81.8057V13.5921H93.6584V9.2124Z"
            fill="#5F539F"
          />
          <path
            d="M102.632 15.2767H98.2523V15.9199C98.2523 21.7391 93.5357 26.4557 87.7165 26.4557C81.928 26.4557 77.242 21.8003 77.1807 16.0424V15.7667V1.00439H72.801V16.2874C72.8929 20.269 74.5468 23.8524 77.1807 26.4863C79.8759 29.1815 83.6125 30.8354 87.7165 30.8354C91.8206 30.8354 95.5571 29.1815 98.2523 26.4863C100.825 23.9136 102.479 20.3915 102.632 16.4712V16.4099C102.632 16.2262 102.632 16.073 102.632 15.8893C102.632 15.7667 102.632 15.4298 102.632 15.2767Z"
            fill="#5F539F"
          />
        </svg>