<svg width="688" height="252" viewBox="0 0 688 252" fill="none" xmlns="http://www.w3.org/2000/svg">
<path d="M421.105 100.727C418.23 100.727 415.617 100.378 413.265 99.6812C410.912 98.9842 408.734 97.6774 406.643 95.8479C406.121 95.4123 405.685 94.8896 405.424 94.2797C405.162 93.6699 404.988 93.1472 404.988 92.5373C404.988 91.579 405.337 90.7078 406.033 90.0108C406.73 89.3138 407.602 88.9653 408.647 88.9653C409.431 88.9653 410.128 89.2267 410.738 89.7494C412.306 91.0562 413.874 92.0146 415.443 92.7115C417.011 93.4085 418.927 93.6699 421.193 93.6699C422.761 93.6699 424.155 93.4085 425.461 92.9729C426.768 92.5373 427.814 91.8403 428.598 91.0562C429.382 90.2722 429.817 89.3138 429.817 88.2684C429.817 87.0487 429.469 86.0032 428.685 85.132C427.901 84.2608 426.768 83.5639 425.287 82.954C423.719 82.3442 421.802 81.9086 419.45 81.5601C417.185 81.2116 415.268 80.6889 413.526 79.9919C411.783 79.2949 410.39 78.4237 409.257 77.3783C408.124 76.3328 407.253 75.1131 406.643 73.6321C406.034 72.2381 405.772 70.5828 405.772 68.8404C405.772 66.1397 406.469 63.8745 407.863 61.9579C409.257 60.0412 411.174 58.5602 413.526 57.6018C415.878 56.6435 418.492 56.1208 421.367 56.1208C424.068 56.1208 426.594 56.5564 428.859 57.3405C431.124 58.1246 433.041 59.17 434.522 60.3897C435.742 61.348 436.352 62.4806 436.352 63.7003C436.352 64.5715 436.003 65.4427 435.306 66.2268C434.609 67.0109 433.738 67.3594 432.78 67.3594C432.17 67.3594 431.56 67.1851 431.124 66.8366C430.427 66.2268 429.556 65.7041 428.424 65.1814C427.291 64.6586 426.158 64.223 424.852 63.8745C423.632 63.5261 422.412 63.3518 421.367 63.3518C419.624 63.3518 418.056 63.6132 416.836 64.0488C415.617 64.4844 414.658 65.0942 414.049 65.8783C413.439 66.6624 413.09 67.6207 413.09 68.5791C413.09 69.7988 413.439 70.8442 414.136 71.6283C414.833 72.4124 415.878 73.1093 417.272 73.5449C418.666 73.9805 420.321 74.4161 422.151 74.8518C424.677 75.2874 426.855 75.8101 428.685 76.5071C430.602 77.1169 432.17 77.901 433.389 78.8593C434.609 79.8176 435.567 81.0374 436.177 82.5184C436.787 83.9995 437.136 85.829 437.136 87.9199C437.136 90.6206 436.352 92.9729 434.871 94.8896C433.389 96.8062 431.386 98.3744 428.946 99.3327C426.507 100.204 423.893 100.727 421.105 100.727Z" fill="#3DC7F4"/>
<path d="M484.268 78.3366C484.268 81.4729 483.745 84.3479 482.7 87.0487C481.654 89.7494 480.173 92.1017 478.344 94.1926C476.427 96.2835 474.249 97.8517 471.635 98.9842C469.022 100.117 466.234 100.727 463.097 100.727C460.048 100.727 457.173 100.117 454.647 98.9842C452.033 97.8517 449.855 96.1964 447.938 94.1926C446.022 92.1017 444.628 89.7494 443.582 87.0487C442.537 84.3479 442.014 81.4729 442.014 78.3366C442.014 75.2002 442.537 72.3252 443.582 69.6245C444.628 66.9237 446.109 64.5715 447.938 62.4806C449.855 60.3897 452.033 58.8215 454.647 57.689C457.26 56.5564 460.048 55.9465 463.097 55.9465C466.147 55.9465 469.022 56.5564 471.635 57.689C474.249 58.8215 476.427 60.4768 478.344 62.4806C480.26 64.5715 481.654 66.9237 482.7 69.6245C483.832 72.3252 484.268 75.2002 484.268 78.3366ZM476.253 78.3366C476.253 75.5487 475.73 73.0222 474.597 70.7571C473.465 68.4919 471.984 66.6624 469.98 65.3556C468.063 64.0488 465.798 63.3518 463.185 63.3518C460.571 63.3518 458.393 64.0488 456.389 65.3556C454.472 66.6624 452.904 68.4919 451.859 70.67C450.726 72.9351 450.204 75.4616 450.204 78.2495C450.204 81.0374 450.726 83.5638 451.859 85.829C452.991 88.0941 454.472 89.9237 456.389 91.2305C458.306 92.5373 460.571 93.2343 463.185 93.2343C465.798 93.2343 467.976 92.5373 469.98 91.2305C471.897 89.9237 473.465 88.0941 474.597 85.829C475.643 83.5638 476.253 81.1245 476.253 78.3366Z" fill="#3DC7F4"/>
<path d="M495.419 100.117C494.286 100.117 493.328 99.7686 492.631 99.0717C491.934 98.3747 491.586 97.4164 491.586 96.3709V60.39C491.586 59.3445 491.934 58.3862 492.631 57.6892C493.328 56.9923 494.286 56.6438 495.332 56.6438H515.544C516.589 56.6438 517.548 56.9923 518.245 57.6892C518.942 58.3862 519.29 59.2574 519.29 60.3029C519.29 61.1741 518.942 62.0453 518.245 62.7422C517.548 63.4392 516.589 63.7877 515.544 63.7877H498.73L499.252 63.0036V75.4619L498.817 74.6778H512.669C513.714 74.6778 514.673 75.0263 515.37 75.7232C516.067 76.4202 516.415 77.2914 516.415 78.3369C516.415 79.2081 516.067 80.0793 515.37 80.7763C514.673 81.4732 513.714 81.8217 512.669 81.8217H498.642L499.165 81.299V96.3709C499.165 97.4164 498.817 98.3747 498.033 99.0717C497.336 99.6815 496.464 100.117 495.419 100.117Z" fill="#3DC7F4"/>
<path d="M527.393 63.7006C526.347 63.7006 525.389 63.3521 524.692 62.7423C523.995 62.0453 523.646 61.1741 523.646 60.1286C523.646 59.0832 523.995 58.212 524.692 57.515C525.389 56.9052 526.347 56.5567 527.393 56.5567H555.01C556.055 56.5567 557.014 56.9052 557.711 57.515C558.408 58.212 558.756 59.0832 558.756 60.1286C558.756 61.1741 558.408 62.0453 557.711 62.7423C557.014 63.3521 556.055 63.7006 555.01 63.7006H527.393ZM541.158 100.117C540.025 100.117 539.067 99.7687 538.283 99.0717C537.499 98.3747 537.15 97.4164 537.15 96.3709V60.3029H545.252V96.3709C545.252 97.4164 544.904 98.3747 544.12 99.0717C543.336 99.6815 542.377 100.117 541.158 100.117Z" fill="#3DC7F4"/>
<path d="M107.295 44.8826C95.9697 51.4167 89 63.6136 89 76.6817V123.03H101.458V80.5151C101.458 57.7765 126.81 40.8751 150.682 56.6439C157.477 61.0871 161.485 68.7537 161.485 76.856V123.117H173.943V80.6022C174.03 49.3258 140.227 25.8031 107.295 44.8826Z" fill="#5F539F"/>
<path d="M264.897 78.8598V84.2613C264.897 92.3635 260.889 99.943 254.094 104.386C230.223 120.155 204.783 103.254 204.783 80.515C204.783 63.9621 218.461 50.4583 235.014 50.4583V38.0001C204.609 38.0001 181.086 70.1477 197.814 102.208C201.298 109.004 206.874 114.492 213.67 117.89C233.185 127.56 252.613 122.769 264.81 110.572V123.03H277.268V80.515V78.8598H264.897Z" fill="#5F539F"/>
<path d="M243.64 38.0001V50.4583H264.898V71.7159H277.356V50.4583V38.0001H264.898H243.64Z" fill="#3DC7F4"/>
<path d="M354.98 61.5227H321.264V73.981H354.98V61.5227Z" fill="#5F539F"/>
<path d="M380.507 78.7726H368.048V80.6021C368.048 97.1551 354.632 110.572 338.079 110.572C321.613 110.572 308.283 97.3294 308.109 80.9506V80.1665V38.1743H295.651V81.6476C295.912 92.9733 300.617 103.166 308.109 110.659C315.776 118.326 326.405 123.03 338.079 123.03C349.753 123.03 360.382 118.326 368.048 110.659C375.367 103.341 380.071 93.3218 380.507 82.1703V81.9961C380.507 81.4734 380.507 81.0378 380.507 80.515C380.507 80.1665 380.507 79.2082 380.507 78.7726Z" fill="#5F539F"/>
<path d="M115 172.943V152H43V81H23.0001V138.969V172.943H56.9738H115Z" fill="#3DC7F4"/>
<path d="M529 0V20.9429L601 20.9429V91.9428H621V33.9737V0L587.026 0L529 0Z" fill="#5F539F"/>
<g filter="url(#filter0_f_25_916)">
<ellipse cx="344" cy="171.5" rx="294" ry="30.5" fill="url(#paint0_linear_25_916)" fill-opacity="0.33"/>
</g>
<defs>
<filter id="filter0_f_25_916" x="0" y="91" width="688" height="161" filterUnits="userSpaceOnUse" color-interpolation-filters="sRGB">
<feFlood flood-opacity="0" result="BackgroundImageFix"/>
<feBlend mode="normal" in="SourceGraphic" in2="BackgroundImageFix" result="shape"/>
<feGaussianBlur stdDeviation="25" result="effect1_foregroundBlur_25_916"/>
</filter>
<linearGradient id="paint0_linear_25_916" x1="50" y1="171.5" x2="621" y2="182.5" gradientUnits="userSpaceOnUse">
<stop stop-color="#5F539F" stop-opacity="0.55"/>
<stop offset="1" stop-color="#EFEEF6" stop-opacity="0.48"/>
</linearGradient>
</defs>
</svg>
